<svg xmlns="http://www.w3.org/2000/svg" viewBox="0 0 512 512">
<defs><linearGradient id="bg" x1="0" y1="0" x2="1" y2="1"><stop stop-color="#164d40"/><stop offset="1" stop-color="#0d3029"/></linearGradient><linearGradient id="beer" x1="0" y1="0" x2="0" y2="1"><stop stop-color="#ffe86b"/><stop offset="1" stop-color="#f2a900"/></linearGradient></defs>
<rect width="512" height="512" rx="112" fill="url(#bg)"/>
<path d="M150 151 Q132 117 168 105 Q180 66 222 91 Q254 66 282 98 Q321 91 328 126 Q354 146 333 173 L323 190 L174 190Z" fill="#fffdf4" stroke="#e8eee4" stroke-width="8" stroke-linejoin="round"/>
<path d="M151 158 Q151 139 173 139 L319 139 Q338 139 338 160 L321 350 Q318 380 288 380 L202 380 Q172 380 169 350Z" fill="url(#beer)" stroke="#fff3c5" stroke-width="12"/>
<path d="M339 184 L372 184 Q405 184 405 220 L405 280 Q405 315 371 315 L331 315" fill="none" stroke="#fff7df" stroke-width="24" stroke-linecap="round" stroke-linejoin="round"/>
<path d="M339 201 L368 201 Q387 201 387 223 L387 276 Q387 296 367 296 L335 296" fill="none" stroke="#e9b63b" stroke-width="11" stroke-linecap="round"/>
<path d="M187 177 L178 329 Q177 350 197 352" fill="none" stroke="#fff7b9" stroke-width="12" stroke-linecap="round" opacity=".8"/>
<circle cx="226" cy="226" r="8" fill="#fff6bf"/><circle cx="276" cy="268" r="6" fill="#fff6bf"/><circle cx="238" cy="308" r="5" fill="#fff6bf"/>
<path d="M156 143 Q136 127 154 108 Q165 94 181 103 Q195 75 222 92 Q247 77 266 99 Q295 94 305 118 Q330 122 329 145 Q321 158 301 158 L174 158 Q160 158 156 143Z" fill="#fffdf7" stroke="#e8eee4" stroke-width="7"/>
</svg>